<svg width="200" height="240" viewBox="0 0 200 240" fill="none" xmlns="http://www.w3.org/2000/svg">
<path d="M145.216 95.2747C154.053 95.2747 161.216 102.438 161.216 111.275V123.78C161.216 132.617 154.053 139.78 145.216 139.78H54.4552C45.6186 139.78 38.4552 132.617 38.4552 123.78V111.275C38.4552 102.438 45.6187 95.2747 54.4552 95.2747H145.216ZM41.6828 0C50.5194 0 57.6828 7.16345 57.6828 16V224C57.6828 232.837 50.5194 240 41.6828 240H16C7.16343 240 0 232.837 0 224V16C0 7.16344 7.16344 0 16 0H41.6828ZM184 0C192.837 0 200 7.16345 200 16V224C200 232.837 192.837 240 184 240H158.482C149.645 240 142.482 232.837 142.482 224V16C142.482 7.16344 149.645 0 158.482 0H184Z" fill="url(#paint0_linear_41_25)"/>
<defs>
<linearGradient id="paint0_linear_41_25" x1="0" y1="0" x2="200.847" y2="239.328" gradientUnits="userSpaceOnUse">
<stop offset="0.395239"/>
<stop offset="0.501826" stop-color="#0000FF"/>
<stop offset="0.550058" stop-color="#0000FF"/>
<stop offset="0.647539"/>
</linearGradient>
</defs>
</svg>
