<svg width="696" height="240" viewBox="0 0 696 240" fill="none" xmlns="http://www.w3.org/2000/svg">
<path d="M145.216 95.2747C154.053 95.2747 161.216 102.438 161.216 111.275V123.78C161.216 132.617 154.053 139.78 145.216 139.78H54.4552C45.6186 139.78 38.4552 132.617 38.4552 123.78V111.275C38.4552 102.438 45.6187 95.2747 54.4552 95.2747H145.216ZM41.6828 0C50.5194 0 57.6828 7.16345 57.6828 16V224C57.6828 232.837 50.5194 240 41.6828 240H16C7.16343 240 0 232.837 0 224V16C0 7.16344 7.16344 0 16 0H41.6828ZM184 0C192.837 0 200 7.16345 200 16V224C200 232.837 192.837 240 184 240H158.482C149.645 240 142.482 232.837 142.482 224V16C142.482 7.16344 149.645 0 158.482 0H184Z" fill="url(#paint0_linear_41_52)"/>
<path d="M643.08 180H623.983C620.652 180 617.959 177.288 617.983 173.958L618.054 163.705C618.078 160.408 620.757 157.747 624.054 157.747H643.08C648.268 157.747 652.653 156.429 656.233 153.791C659.865 151.154 662.615 147.225 664.483 142.005C666.403 136.731 667.363 130.247 667.363 122.555V117.363C667.363 111.593 666.818 106.538 665.728 102.198C664.691 97.8022 663.134 94.1483 661.059 91.2363C658.983 88.2692 656.389 86.044 653.276 84.5604C650.214 83.0769 646.686 82.3352 642.691 82.3352H623.473C620.16 82.3352 617.473 79.6489 617.473 76.3352V66C617.473 62.6863 620.16 60 623.473 60H642.691C650.37 60 657.401 61.4011 663.783 64.2033C670.217 66.9505 675.769 70.9066 680.438 76.0714C685.16 81.1813 688.792 87.2527 691.335 94.2857C693.929 101.264 695.226 109.011 695.226 117.527V122.555C695.226 131.016 693.929 138.764 691.335 145.797C688.792 152.83 685.186 158.901 680.516 164.011C675.846 169.121 670.32 173.077 663.938 175.879C657.608 178.626 650.655 180 643.08 180ZM627.584 60C630.898 60 633.584 62.6863 633.584 66V174C633.584 177.314 630.898 180 627.584 180H612.266C608.952 180 606.266 177.314 606.266 174V66C606.266 62.6863 608.952 60 612.266 60H627.584Z" fill="url(#paint1_linear_41_52)"/>
<path d="M584.266 59C590.893 59 596.266 64.3726 596.266 71V136C596.266 142.627 590.893 148 584.266 148V148C577.638 148 572.266 142.627 572.266 136V71C572.266 64.3726 577.638 59 584.266 59V59Z" fill="#0000FF"/>
<path d="M584.266 156C590.893 156 596.266 161.373 596.266 168V168C596.266 174.627 590.893 180 584.266 180V180C577.638 180 572.266 174.627 572.266 168V168C572.266 161.373 577.638 156 584.266 156V156Z" fill="#0000FF"/>
<path d="M455.632 66.5284C454.596 63.3012 457.004 60 460.393 60H472.086C474.289 60 476.233 61.4419 476.872 63.5502L496.306 127.695C497.74 132.429 504.442 132.429 505.876 127.695L525.31 63.5502C525.949 61.4419 527.892 60 530.095 60H541.789C545.178 60 547.586 63.3012 546.549 66.5284L511.234 176.528C510.57 178.597 508.646 180 506.473 180H495.709C493.536 180 491.612 178.597 490.948 176.528L455.632 66.5284ZM439.994 65C439.994 62.2386 442.232 60 444.994 60H458.259C460.93 60 463.129 62.0994 463.254 64.7675L467.312 151.978V175C467.312 177.761 465.074 180 462.312 180H444.994C442.232 180 439.994 177.761 439.994 175V65ZM538.928 64.7675C539.052 62.0994 541.252 60 543.923 60H557.266C560.027 60 562.266 62.2386 562.266 65V175C562.266 177.761 560.027 180 557.266 180H539.869C537.108 180 534.869 177.761 534.869 175V151.978L538.928 64.7675Z" fill="url(#paint2_linear_41_52)"/>
<path d="M381.752 84.7584C381.712 85.0655 381.648 85.3691 381.562 85.6664L355.321 175.679C354.575 178.24 352.228 180 349.561 180H333.153C329.026 180 326.132 175.931 327.484 172.033L364.96 64.0331C365.797 61.6187 368.073 60 370.628 60H378.133C381.753 60 384.548 63.1813 384.083 66.7712L381.752 84.7584ZM409.071 180C406.406 180 404.06 178.242 403.312 175.684L376.987 85.6334C376.907 85.358 376.846 85.0772 376.806 84.7931L374.257 66.8433C373.745 63.2304 376.549 60 380.198 60H387.86C390.412 60 392.684 61.614 393.525 64.0232L431.211 172.023C432.571 175.923 429.676 180 425.545 180H409.071ZM397.484 135.247C400.798 135.247 403.484 137.934 403.484 141.247V151.582C403.484 154.896 400.798 157.582 397.484 157.582H351.345C348.031 157.582 345.345 154.896 345.345 151.582V141.247C345.345 137.934 348.031 135.247 351.345 135.247H397.484Z" fill="url(#paint3_linear_41_52)"/>
<path d="M295.352 107.637C298.113 107.637 300.352 109.876 300.352 112.637V124.89C300.352 127.652 298.113 129.89 295.352 129.89H247.212C244.451 129.89 242.212 127.652 242.212 124.89V112.637C242.212 109.876 244.451 107.637 247.212 107.637H295.352ZM246.319 60C249.08 60 251.319 62.2386 251.319 65V175C251.319 177.761 249.08 180 246.319 180H229C226.239 180 224 177.761 224 175V65C224 62.2386 226.239 60 229 60H246.319ZM313.72 60C316.481 60 318.72 62.2386 318.72 65V175C318.72 177.761 316.481 180 313.72 180H296.479C293.718 180 291.479 177.761 291.479 175V65C291.479 62.2386 293.718 60 296.479 60H313.72Z" fill="url(#paint4_linear_41_52)"/>
<defs>
<linearGradient id="paint0_linear_41_52" x1="0" y1="0" x2="200.847" y2="239.328" gradientUnits="userSpaceOnUse">
<stop offset="0.395239"/>
<stop offset="0.501826" stop-color="#0000FF"/>
<stop offset="0.550058" stop-color="#0000FF"/>
<stop offset="0.647539"/>
</linearGradient>
<linearGradient id="paint1_linear_41_52" x1="488.244" y1="52.989" x2="509.718" y2="186.317" gradientUnits="userSpaceOnUse">
<stop offset="0.7"/>
</linearGradient>
<linearGradient id="paint2_linear_41_52" x1="500.197" y1="53.0279" x2="522.171" y2="186.274" gradientUnits="userSpaceOnUse">
<stop offset="0.7"/>
</linearGradient>
<linearGradient id="paint3_linear_41_52" x1="497.457" y1="53.0735" x2="520.002" y2="186.224" gradientUnits="userSpaceOnUse">
<stop offset="0.7"/>
</linearGradient>
<linearGradient id="paint4_linear_41_52" x1="496.19" y1="53.1214" x2="519.318" y2="186.172" gradientUnits="userSpaceOnUse">
<stop offset="0.7"/>
</linearGradient>
</defs>
</svg>
