<svg width="472" height="121" viewBox="0 0 472 121" fill="none" xmlns="http://www.w3.org/2000/svg">
<path d="M419.08 121H399.983C396.652 121 393.959 118.288 393.983 114.958L394.054 104.705C394.078 101.408 396.757 98.7473 400.054 98.7473H419.08C424.268 98.7473 428.653 97.4286 432.233 94.7912C435.865 92.1538 438.615 88.2253 440.483 83.0055C442.403 77.7308 443.363 71.2473 443.363 63.5549V58.3626C443.363 52.5934 442.818 47.5385 441.728 43.1978C440.691 38.8022 439.134 35.1484 437.059 32.2363C434.983 29.2692 432.389 27.044 429.276 25.5604C426.214 24.0769 422.686 23.3352 418.691 23.3352H399.473C396.16 23.3352 393.473 20.6489 393.473 17.3352V7C393.473 3.6863 396.16 1 399.473 1H418.691C426.37 1 433.401 2.4011 439.783 5.2033C446.217 7.95055 451.769 11.9066 456.438 17.0714C461.16 22.1813 464.792 28.2527 467.335 35.2857C469.929 42.2637 471.226 50.011 471.226 58.5275V63.5549C471.226 72.0165 469.929 79.7637 467.335 86.7967C464.792 93.8297 461.186 99.9011 456.516 105.011C451.846 110.121 446.32 114.077 439.938 116.879C433.608 119.626 426.655 121 419.08 121ZM403.584 1C406.898 1 409.584 3.68629 409.584 7V115C409.584 118.314 406.898 121 403.584 121H388.266C384.952 121 382.266 118.314 382.266 115V7C382.266 3.68629 384.952 1 388.266 1H403.584Z" fill="#0000FF"/>
<path d="M360.266 0C366.893 0 372.266 5.37258 372.266 12V77C372.266 83.6274 366.893 89 360.266 89V89C353.638 89 348.266 83.6274 348.266 77V12C348.266 5.37259 353.638 0 360.266 0V0Z" fill="white"/>
<path d="M360.266 97C366.893 97 372.266 102.373 372.266 109V109C372.266 115.627 366.893 121 360.266 121V121C353.638 121 348.266 115.627 348.266 109V109C348.266 102.373 353.638 97 360.266 97V97Z" fill="white"/>
<path d="M231.632 7.52842C230.596 4.30118 233.004 1 236.393 1H248.086C250.289 1 252.233 2.44185 252.872 4.55021L272.306 68.6949C273.74 73.4285 280.442 73.4285 281.876 68.6949L301.31 4.55021C301.949 2.44185 303.892 1 306.095 1H317.789C321.178 1 323.586 4.30118 322.549 7.52842L287.234 117.528C286.57 119.597 284.646 121 282.473 121H271.709C269.536 121 267.612 119.597 266.948 117.528L231.632 7.52842ZM215.994 6C215.994 3.23858 218.232 1 220.994 1H234.259C236.93 1 239.129 3.09939 239.254 5.76755L243.312 92.978V116C243.312 118.761 241.074 121 238.312 121H220.994C218.232 121 215.994 118.761 215.994 116V6ZM314.928 5.76755C315.052 3.09939 317.252 1 319.923 1H333.266C336.027 1 338.266 3.23858 338.266 6V116C338.266 118.761 336.027 121 333.266 121H315.869C313.108 121 310.869 118.761 310.869 116V92.978L314.928 5.76755Z" fill="#0000FF"/>
<path d="M157.752 25.7584C157.712 26.0655 157.648 26.3691 157.562 26.6664L131.321 116.679C130.575 119.24 128.228 121 125.561 121H109.153C105.026 121 102.132 116.931 103.484 113.033L140.96 5.03308C141.797 2.61873 144.073 1 146.628 1H154.133C157.753 1 160.548 4.18135 160.083 7.77124L157.752 25.7584ZM185.071 121C182.406 121 180.06 119.242 179.312 116.684L152.987 26.6334C152.907 26.358 152.846 26.0772 152.806 25.7931L150.258 7.8433C149.745 4.23035 152.549 1 156.198 1H163.86C166.412 1 168.684 2.61397 169.525 5.02324L207.211 113.023C208.571 116.923 205.676 121 201.545 121H185.071ZM173.484 76.2473C176.798 76.2473 179.484 78.9335 179.484 82.2473V92.5824C179.484 95.8961 176.798 98.5824 173.484 98.5824H127.345C124.031 98.5824 121.345 95.8961 121.345 92.5824V82.2473C121.345 78.9335 124.031 76.2473 127.345 76.2473H173.484Z" fill="#0000FF"/>
<path d="M71.3518 48.6374C74.1132 48.6374 76.3518 50.8759 76.3518 53.6374V65.8901C76.3518 68.6515 74.1132 70.8901 71.3518 70.8901H23.2124C20.4509 70.8901 18.2124 68.6515 18.2124 65.8901V53.6374C18.2124 50.8759 20.4509 48.6374 23.2124 48.6374H71.3518ZM22.3185 1C25.08 1 27.3185 3.23858 27.3185 6V116C27.3185 118.761 25.08 121 22.3185 121H5C2.23858 121 0 118.761 0 116V6C0 3.23858 2.23858 1 5 1H22.3185ZM89.7199 1C92.4813 1 94.7198 3.23858 94.7198 6V116C94.7198 118.761 92.4813 121 89.7198 121H72.4791C69.7177 121 67.4791 118.761 67.4791 116V6C67.4791 3.23858 69.7177 1 72.4791 1H89.7199Z" fill="#0000FF"/>
<path d="M419.08 121H399.983C396.652 121 393.959 118.288 393.983 114.958L394.054 104.705C394.078 101.408 396.757 98.7473 400.054 98.7473H419.08C424.268 98.7473 428.653 97.4286 432.233 94.7912C435.865 92.1538 438.615 88.2253 440.483 83.0055C442.403 77.7308 443.363 71.2473 443.363 63.5549V58.3626C443.363 52.5934 442.818 47.5385 441.728 43.1978C440.691 38.8022 439.134 35.1484 437.059 32.2363C434.983 29.2692 432.389 27.044 429.276 25.5604C426.214 24.0769 422.686 23.3352 418.691 23.3352H399.473C396.16 23.3352 393.473 20.6489 393.473 17.3352V7C393.473 3.6863 396.16 1 399.473 1H418.691C426.37 1 433.401 2.4011 439.783 5.2033C446.217 7.95055 451.769 11.9066 456.438 17.0714C461.16 22.1813 464.792 28.2527 467.335 35.2857C469.929 42.2637 471.226 50.011 471.226 58.5275V63.5549C471.226 72.0165 469.929 79.7637 467.335 86.7967C464.792 93.8297 461.186 99.9011 456.516 105.011C451.846 110.121 446.32 114.077 439.938 116.879C433.608 119.626 426.655 121 419.08 121ZM403.584 1C406.898 1 409.584 3.68629 409.584 7V115C409.584 118.314 406.898 121 403.584 121H388.266C384.952 121 382.266 118.314 382.266 115V7C382.266 3.68629 384.952 1 388.266 1H403.584Z" fill="#0000FF"/>
<path d="M360.266 0C366.893 0 372.266 5.37258 372.266 12V77C372.266 83.6274 366.893 89 360.266 89V89C353.638 89 348.266 83.6274 348.266 77V12C348.266 5.37259 353.638 0 360.266 0V0Z" fill="white"/>
<path d="M360.266 97C366.893 97 372.266 102.373 372.266 109V109C372.266 115.627 366.893 121 360.266 121V121C353.638 121 348.266 115.627 348.266 109V109C348.266 102.373 353.638 97 360.266 97V97Z" fill="white"/>
<path d="M231.632 7.52842C230.596 4.30118 233.004 1 236.393 1H248.086C250.289 1 252.233 2.44185 252.872 4.55021L272.306 68.6949C273.74 73.4285 280.442 73.4285 281.876 68.6949L301.31 4.55021C301.949 2.44185 303.892 1 306.095 1H317.789C321.178 1 323.586 4.30118 322.549 7.52842L287.234 117.528C286.57 119.597 284.646 121 282.473 121H271.709C269.536 121 267.612 119.597 266.948 117.528L231.632 7.52842ZM215.994 6C215.994 3.23858 218.232 1 220.994 1H234.259C236.93 1 239.129 3.09939 239.254 5.76755L243.312 92.978V116C243.312 118.761 241.074 121 238.312 121H220.994C218.232 121 215.994 118.761 215.994 116V6ZM314.928 5.76755C315.052 3.09939 317.252 1 319.923 1H333.266C336.027 1 338.266 3.23858 338.266 6V116C338.266 118.761 336.027 121 333.266 121H315.869C313.108 121 310.869 118.761 310.869 116V92.978L314.928 5.76755Z" fill="#0000FF"/>
<path d="M157.752 25.7584C157.712 26.0655 157.648 26.3691 157.562 26.6664L131.321 116.679C130.575 119.24 128.228 121 125.561 121H109.153C105.026 121 102.132 116.931 103.484 113.033L140.96 5.03308C141.797 2.61873 144.073 1 146.628 1H154.133C157.753 1 160.548 4.18135 160.083 7.77124L157.752 25.7584ZM185.071 121C182.406 121 180.06 119.242 179.312 116.684L152.987 26.6334C152.907 26.358 152.846 26.0772 152.806 25.7931L150.258 7.8433C149.745 4.23035 152.549 1 156.198 1H163.86C166.412 1 168.684 2.61397 169.525 5.02324L207.211 113.023C208.571 116.923 205.676 121 201.545 121H185.071ZM173.484 76.2473C176.798 76.2473 179.484 78.9335 179.484 82.2473V92.5824C179.484 95.8961 176.798 98.5824 173.484 98.5824H127.345C124.031 98.5824 121.345 95.8961 121.345 92.5824V82.2473C121.345 78.9335 124.031 76.2473 127.345 76.2473H173.484Z" fill="#0000FF"/>
<path d="M71.3518 48.6374C74.1132 48.6374 76.3518 50.8759 76.3518 53.6374V65.8901C76.3518 68.6515 74.1132 70.8901 71.3518 70.8901H23.2124C20.4509 70.8901 18.2124 68.6515 18.2124 65.8901V53.6374C18.2124 50.8759 20.4509 48.6374 23.2124 48.6374H71.3518ZM22.3185 1C25.08 1 27.3185 3.23858 27.3185 6V116C27.3185 118.761 25.08 121 22.3185 121H5C2.23858 121 0 118.761 0 116V6C0 3.23858 2.23858 1 5 1H22.3185ZM89.7199 1C92.4813 1 94.7198 3.23858 94.7198 6V116C94.7198 118.761 92.4813 121 89.7198 121H72.4791C69.7177 121 67.4791 118.761 67.4791 116V6C67.4791 3.23858 69.7177 1 72.4791 1H89.7199Z" fill="#0000FF"/>
</svg>
